<?xml version="1.0" standalone="no"?><!-- Generator: Gravit.io -->
<svg xmlns="http://www.w3.org/2000/svg" 
  xmlns:xlink="http://www.w3.org/1999/xlink" style="isolation:isolate" viewBox="0 0 2400 2400" width="2400" height="2400">
  <defs>
    <clipPath id="_clipPath_zh19D20YzP6Ag8JUEIOZjDxKhxjUKkYp">
      <rect width="2400" height="2400"/>
    </clipPath>
  </defs>
  <g clip-path="url(#_clipPath_zh19D20YzP6Ag8JUEIOZjDxKhxjUKkYp)">
    <path d=" M 26.808 163.479 L 113.406 1676.311 M 26.808 163.479 L 727.743 463.88 M 727.743 463.88 L 760.221 2344.776 M 760.221 2344.776 L 113.406 1676.311 M 26.808 163.479 L 1431.387 55.224 M 1431.387 55.224 L 2373.192 282.558 M 727.743 463.88 L 2373.192 282.558 M 2373.192 282.558 L 2275.761 1936.116 M 760.221 2344.776 L 2275.761 1936.116 M 587.014 610.025 L 605.959 1373.212 M 605.959 1373.212 L 968.604 1649.26 M 968.604 1649.26 L 968.604 790.843 M 968.604 790.843 L 587.014 610.025 M 587.014 610.025 L 1298.775 520.715 M 1298.775 520.715 L 1298.775 1248.718 M 605.959 1373.212 L 1298.775 1248.718 M 1298.775 520.715 L 1729.082 677.682 M 1729.082 677.682 L 968.604 790.843 M 1729.082 677.682 L 1710.137 1486.871 M 1298.775 1248.718 L 1710.137 1486.871 M 968.604 1649.26 L 1710.137 1486.871 M 968.604 1649.26 L 760.221 2344.776 M 1710.137 1486.871 L 2275.761 1936.116 M 1729.082 677.682 L 2373.192 282.558 M 1298.775 520.715 L 1431.387 55.224 M 26.808 163.479 L 587.014 610.025 M 727.743 463.88 L 968.604 790.843 M 605.959 1373.212 L 113.406 1676.311 M 113.406 1676.311 L 1415.143 1424.626 M 1415.143 1424.626 L 2275.761 1936.116 M 1415.143 1424.626 L 1431.387 55.224 M 1298.775 1248.718 L 1415.143 1424.626" fill-rule="evenodd" fill="none" vector-effect="non-scaling-stroke" stroke-width="1" stroke="rgb(0,0,0)" stroke-linejoin="miter" stroke-linecap="round" stroke-miterlimit="10"/>
  </g>
</svg>